<svg width="30" height="30" viewBox="0 0 30 30" fill="none" xmlns="http://www.w3.org/2000/svg">
<g id="2">
<path id="2_2" d="M18.2074 18.16C18.4207 18.16 18.5887 18.2213 18.7114 18.344C18.8394 18.4613 18.9034 18.6187 18.9034 18.816V20H10.9674V19.344C10.9674 19.2107 10.994 19.072 11.0474 18.928C11.106 18.7787 11.1967 18.6453 11.3194 18.528L14.8314 15.008C15.1247 14.7093 15.386 14.424 15.6154 14.152C15.85 13.88 16.0447 13.6107 16.1994 13.344C16.354 13.0773 16.4714 12.808 16.5514 12.536C16.6367 12.2587 16.6794 11.968 16.6794 11.664C16.6794 11.3867 16.6394 11.144 16.5594 10.936C16.4794 10.7227 16.3647 10.544 16.2154 10.4C16.0714 10.256 15.8954 10.1493 15.6874 10.08C15.4847 10.0053 15.2554 9.968 14.9994 9.968C14.7647 9.968 14.546 10.0027 14.3434 10.072C14.146 10.136 13.97 10.2293 13.8154 10.352C13.6607 10.4693 13.53 10.608 13.4234 10.768C13.3167 10.928 13.2367 11.104 13.1834 11.296C13.0927 11.5413 12.9754 11.704 12.8314 11.784C12.6874 11.864 12.4794 11.8827 12.2074 11.84L11.1674 11.656C11.2474 11.1013 11.402 10.616 11.6314 10.2C11.8607 9.77867 12.146 9.42933 12.4874 9.152C12.834 8.86933 13.2287 8.65867 13.6714 8.52C14.1194 8.376 14.5994 8.304 15.1114 8.304C15.6447 8.304 16.1327 8.384 16.5754 8.544C17.018 8.69867 17.3967 8.92 17.7114 9.208C18.026 9.496 18.2714 9.84267 18.4474 10.248C18.6234 10.6533 18.7114 11.104 18.7114 11.6C18.7114 12.0267 18.6474 12.4213 18.5194 12.784C18.3967 13.1467 18.2287 13.4933 18.0154 13.824C17.8074 14.1547 17.562 14.4747 17.2794 14.784C16.9967 15.0933 16.7007 15.408 16.3914 15.728L13.7834 18.392C14.034 18.3173 14.282 18.2613 14.5274 18.224C14.778 18.1813 15.0154 18.16 15.2394 18.16H18.2074Z" fill="#548BC5"/>
<circle id="Oval 2 Copy" cx="15" cy="15" r="15" stroke="#548BC5" stroke-width="2"/>
</g>
</svg>
